<?xml version="1.0" encoding="utf-8"?>
<!-- Generator: Adobe Illustrator 21.0.2, SVG Export Plug-In . SVG Version: 6.00 Build 0)  -->
<svg version="1.2" baseProfile="tiny" id="Layer_1" xmlns="http://www.w3.org/2000/svg" xmlns:xlink="http://www.w3.org/1999/xlink"
	 x="0px" y="0px" viewBox="0 0 1168 618" overflow="scroll" xml:space="preserve">
<path fill="#E2E2E2" d="M264,309c0,0,83-36,126-13s51,132,51,132s14,104-72,80s-128-68-128-68S183,355,264,309z"/>
<g>
	<g>
		<path d="M382.7,385.1c2.7-3.7,5.1-9.1,5.1-9.1c0.3-0.7,0.2-1.4-0.1-2.1c-0.3-0.7-0.9-1.2-1.6-1.4c-0.4-0.1-0.8-0.3-1.3-0.5
			c-2.3-0.8-5-1.8-7.7-2.2c1-3.6,1-7.7,0.8-9.9c-0.1-0.7-0.4-1.4-1-1.9c-0.6-0.5-1.3-0.7-2-0.6c-2.9,0.4-6.4,0.9-9.8,1.7
			c-0.1-0.4-0.1-0.8-0.2-1.2c-0.4-2.9-0.9-5.9-2-8.7c-0.5-1.2-1.7-1.9-2.9-1.7c-3.5,0.5-6.4,2.9-8.9,5c-0.2,0.2-0.4,0.3-0.6,0.5
			c-1.3-2-2.7-4-4-6c-0.5-0.8-1-1.5-1.6-2.3c-0.5-0.7-1.3-1.2-2.2-1.2c-0.9,0-1.7,0.4-2.2,1.2c-0.7,1.1-1.4,2.3-2.1,3.4
			c-1.1,1.8-2.1,3.5-3.3,5c-0.1,0.1-0.2,0.2-0.3,0.3c-0.3-0.2-0.6-0.3-0.8-0.4c-2.5-1.4-5.1-3.4-7.5-5.3c-1.2-0.9-2.9-0.7-3.8,0.5
			c-0.5,0.6-0.6,1.3-0.6,2c-0.1,0.7-0.4,2.3-1.1,4.8c-0.1,0.5-0.2,0.8-0.2,0.9c-0.1,0.6-0.2,1.2-0.3,1.7c-0.1,0.5-0.2,1.2-0.3,1.6
			c-0.2,0-0.5,0-0.8,0c-1.9-0.2-3.9-0.7-5.9-1.2c-1.1-0.3-2.2-0.5-3.2-0.8c-0.9-0.2-1.8,0.1-2.5,0.7c-0.6,0.6-0.9,1.6-0.7,2.5
			c0.1,0.3,0.2,1,0.3,1.9c0.5,3.4,0.9,5.8,1.3,7.6c-3.6,0.5-7.9,2-9.4,2.6c-0.8,0.3-1.4,1-1.7,1.9c-0.2,0.9,0,1.8,0.6,2.5
			c0.7,0.8,4.1,5.5,5.5,7.9c-2.3,2.2-5.2,4.2-8.2,5.8c-0.8,0.4-1.3,1.2-1.4,2.1c-0.1,0.9,0.3,1.8,0.9,2.4c1.1,0.9,2.6,1.6,4.1,2.4
			c1.4,0.7,3.9,1.8,4.5,2.8c-0.8,1.8-3.9,6.7-5.2,8c-0.7,0.3-1.3,1-1.5,1.8c-0.4,1.4,0.5,2.9,1.9,3.3c0,0,0,0,0,0
			c1,0.3,2.5,0.4,4.2,0.6c1.6,0.2,4.8,0.5,6.2,0.9c-0.1,2.2-1.1,7.6-1.7,9.1c-0.5,0.6-0.8,1.4-0.6,2.2c0.2,1.5,1.6,2.5,3.1,2.2
			c1.3-0.2,2.6-0.7,4.1-1.2c1.8-0.6,3.8-1.4,5.3-1.4c0.4,0,0.8,0.1,0.9,0.1c0.8,0.8,1.2,5.1,1.4,6.9c0.1,1.3,0.2,2.5,0.4,3.4
			c0.3,1.3,1.4,2.2,2.6,2.2c0.9,0,0.9,0,4.9-3.1c0.9-0.7,1.7-1.3,1.8-1.4c0.9-0.7,2.5-1.9,3.3-1.7c1.1,1.1,4.3,5.6,5,7.2
			c0,0.9,0.5,1.8,1.3,2.3c0.4,0.3,0.9,0.4,1.4,0.4c0.9,0,1.8-0.5,2.3-1.3c0,0,0,0,0,0c0.5-0.8,1-1.9,1.5-3c1.1-2.3,2.7-5.7,4.4-6
			c1.4,0.5,5.7,3,7,4.2c0.2,0.8,0.8,1.5,1.6,1.8c1.4,0.5,3-0.2,3.5-1.6l0,0c0,0,0,0,0,0c0.1-0.3,0.3-0.9,1.5-6.8
			c0.2-1.2,0.4-2.2,0.6-3c0.2,0.1,0.5,0.1,0.7,0.2c2.7,0.7,5.8,1.6,8.6,1.6c0,0,0,0,0,0c0.4,0,0.9,0,1.3-0.1
			c1.4-0.1,2.5-1.4,2.4-2.9c0-0.6-0.4-2.3-1.4-7.2c-0.2-1-0.4-2.1-0.6-3.1c0.5-0.1,1-0.3,1.4-0.4c2.7-0.8,5.3-1.6,7.8-1.7
			c0.9,0,1.7-0.5,2.2-1.3c0.5-0.8,0.5-1.7,0.2-2.6c-1.3-2.8-3.3-5.7-5.3-8.3c0.7-0.5,1.7-1.1,2.8-1.9c5.1-3.6,5.6-4.4,5.9-4.9
			c0.6-1.1,0.4-2.4-0.5-3.3C388.3,388.5,385.5,386.8,382.7,385.1z M377.9,397.3c-0.4,0.1-0.7,0.2-1,0.5c-1.2,0.9-1.4,2.6-0.5,3.8
			l0.4,0.6c1.4,1.9,3,3.9,4.3,5.9c-1.7,0.4-3.4,0.9-5,1.4c-1.3,0.4-2.4,0.7-3.6,1c-2.6,0.6-2.1,3-1.7,4.9c0.2,1,0.5,2.4,0.8,3.9
			c0.2,1,0.5,2.3,0.7,3.4c-1.6-0.3-3.2-0.7-4.9-1.2c-1.3-0.4-2.5-0.7-3.7-0.9c-1.5-0.3-2.9,0.6-3.2,2.1c0,0.1,0,0.3-0.1,0.4
			c-0.1,0.8-0.8,4.2-1.3,7c-2.8-1.9-6.4-3.6-7.8-3.6c-4.2,0-6.7,3.6-8.4,7c-1.8-2.6-3.9-5.3-4.8-5.8c-0.9-0.5-2-0.8-3-0.8
			c-2.6,0-4.9,1.7-6.4,2.8c-0.1,0-0.6,0.5-1.3,1c-0.4-3.9-1.1-7.9-4-9.4c-1-0.5-2.2-0.8-3.5-0.8c-1.9,0-3.9,0.6-5.7,1.2
			c0.8-3.6,1.5-8.3,0.2-10c-1.5-2-4.6-2.6-9.1-3c2-2.8,4.5-6.9,4.2-8.9c-0.6-3.5-3.9-5.4-6.9-6.8c2.5-1.7,4.8-3.6,6.6-5.6
			c1.8-1.9,0.3-4.2-2.6-8.4c-0.5-0.7-1.1-1.6-1.7-2.4c2.3-0.7,4.9-1.3,6.6-1.3c0.4,0,0.5,0,0.5,0c1.4,0.4,2.9-0.5,3.3-2
			c0.2-0.9,0-1.7-0.5-2.4c-0.4-1.2-1-4.9-1.4-7.4c1.9,0.5,3.9,0.9,6,1.1c0.4,0,0.7,0,1,0c5.1,0,5.6-4.1,6-6.3c0.1-0.5,0.1-1,0.2-1.5
			c0-0.1,0.1-0.4,0.2-0.7c0.1-0.5,0.3-1,0.4-1.5c1.5,1.1,3,2.1,4.6,3c1.4,0.8,2.5,1.4,3.8,1.4c2,0,3.2-1.4,4.1-2.5
			c1.4-1.7,2.5-3.5,3.6-5.3c1.6,2.3,3.2,4.7,4.6,7.2c0.4,0.6,1,1.1,1.7,1.3c0.7,0.2,1.5,0,2.1-0.4c1.1-0.8,2.2-1.7,3.2-2.5
			c1.4-1.1,2.8-2.3,4.1-3c0.4,1.6,0.6,3.3,0.9,5.1c0.2,1.4,0.4,2.9,0.7,4.3c0.2,0.7,0.6,1.4,1.3,1.8c0.7,0.4,1.4,0.5,2.2,0.2
			c2.9-0.9,6.1-1.5,8.9-1.9c-0.1,2.9-0.7,6.2-1.8,7.8c-0.6,0.9-0.6,2.2,0,3.1c0.7,0.9,1.8,1.3,2.9,1c0.3-0.1,0.7-0.1,1.2-0.1
			c1.9,0,4.4,0.8,6.5,1.5c-1.3,2.4-3.2,5.6-4.1,6.7c-0.5,0.2-1,0.6-1.3,1.1c-0.7,1.3-0.3,2.9,0.9,3.7c0.7,0.4,1.4,0.8,2.1,1.2
			c1.9,1.1,3.8,2.2,5.5,3.4C382.4,394.4,379.1,396.7,377.9,397.3z"/>
		<path d="M394.8,382.8c0.8-1.1,1.8-2.6,2.9-4.6c1.9-3.2,3.9-7.1,4.4-8.2c0.3-0.7,0.2-1.4-0.1-2.1c-0.3-0.7-0.9-1.2-1.6-1.4
			c-0.5-0.2-1.1-0.4-1.7-0.6c-3.3-1.2-7.4-2.7-11.2-3.1c1.5-4.7,1.7-10.4,1.4-13.9c-0.1-0.7-0.4-1.4-1-1.9c-0.6-0.5-1.3-0.7-2-0.6
			c-4.1,0.5-9.1,1.3-14,2.6c-0.1-0.8-0.3-1.7-0.4-2.5c-0.6-3.8-1.1-7.8-2.6-11.5c-0.5-1.2-1.7-1.9-2.9-1.7
			c-4.5,0.7-8.2,3.8-11.5,6.5c-0.5,0.4-1,0.9-1.5,1.3c-1.9-3-3.9-6-5.8-8.8c-0.7-1-1.4-2.1-2.1-3.1c-0.5-0.7-1.3-1.2-2.2-1.2
			c-0.9,0-1.7,0.4-2.2,1.2c-1,1.4-1.9,3-2.8,4.5c-1.5,2.5-2.8,4.8-4.5,6.7c-0.4,0.5-0.7,0.8-0.9,1c-0.5-0.2-1.3-0.7-1.7-0.9
			c-3.4-1.9-6.9-4.7-10.1-7.2c0,0,0,0,0,0c-1.2-0.9-2.8-0.7-3.8,0.5c-0.9,1.1-0.7,2.8,0.4,3.8l0,0c-0.8-0.6-1-1.5-1-1.9
			c0,0.6-0.5,2.9-1.5,6.8c-0.2,0.6-0.3,1.1-0.3,1.2c-0.2,0.8-0.3,1.6-0.4,2.3c-0.4,3-0.4,3-1.7,3c-0.2,0-0.5,0-0.8,0
			c-2.6-0.2-5.4-0.9-8.1-1.6c-1.5-0.4-2.9-0.7-4.3-1c-0.9-0.2-1.8,0.1-2.5,0.7c-0.6,0.6-0.9,1.6-0.7,2.5c0.1,0.3,0.2,1.3,0.4,2.6
			c0.8,5.2,1.4,8.7,1.9,11.1c-4.9,0.6-11.3,2.7-13.4,3.5c-0.8,0.3-1.5,1-1.7,1.9s0,1.8,0.6,2.5c1,1.1,6.1,8.3,7.9,11.3
			c-3.2,3.2-7.3,6.1-11.7,8.4c-0.8,0.4-1.3,1.2-1.4,2.1c-0.1,0.9,0.3,1.8,0.9,2.4c1.4,1.2,3.3,2.1,5.3,3c2.6,1.2,6,2.8,6.6,4.5
			c-0.8,2.3-5.7,9.8-7.4,11.5c-0.8,0.3-1.4,1-1.6,1.8c-0.4,1.4,0.5,2.9,1.9,3.3c1.3,0.3,3.2,0.5,5.5,0.7c2.5,0.2,7.6,0.7,9.1,1.6
			c0.1,2.7-1.5,11.3-2.4,13.3c-0.6,0.6-0.9,1.5-0.7,2.3c0.2,1.5,1.6,2.5,3.1,2.2c1.6-0.3,3.4-0.9,5.3-1.6c2.5-0.9,5.2-1.9,7.3-1.9
			c0.7,0,1.3,0.1,1.8,0.3c1.4,0.7,2,7.6,2.2,9.9c0.2,1.7,0.3,3.3,0.5,4.4c0.3,1.3,1.4,2.2,2.6,2.2c1,0,1,0,6.1-4.1
			c1.2-0.9,2.2-1.7,2.3-1.8c1.7-1.2,4-3,5.5-2.3c1.4,1.3,6.3,8.1,7.1,10.2c-0.1,1,0.4,1.9,1.3,2.5c0.4,0.3,0.9,0.4,1.4,0.4
			c0.9,0,1.8-0.5,2.3-1.3c0,0,0,0,0,0c0.7-1.1,1.3-2.4,2-3.9c1.7-3.5,3.9-8.3,6.8-8.5c1.8,0.5,8.5,4.3,10.1,6
			c0.2,0.9,0.8,1.7,1.7,2.1c1.4,0.5,3-0.2,3.5-1.6c0.1-0.3,0.4-1.1,2-9c0.4-2.1,0.7-3.7,1-4.9c0.6,0.2,1.2,0.3,1.9,0.5
			c3.6,1,7.6,2.1,11.2,2.1c0,0,0,0,0,0c0.6,0,1.1,0,1.6-0.1c1.4-0.1,2.5-1.4,2.4-2.9c-0.1-0.8-0.6-3.5-1.8-9.5c-0.3-1.7-0.7-3.5-1-5
			c0.9-0.3,1.8-0.5,2.7-0.8c3.7-1.1,7.2-2.2,10.7-2.3c0.9,0,1.7-0.5,2.2-1.3c0.5-0.8,0.5-1.7,0.2-2.6c-1.8-4-4.7-8-7.5-11.7
			c1.1-0.7,2.6-1.7,4.5-3c6.7-4.7,7.3-5.8,7.6-6.2c0.6-1.1,0.4-2.4-0.5-3.3C402.9,387.5,398.8,385.1,394.8,382.8z M390,399.7
			c-0.4,0.1-0.8,0.2-1.2,0.5c-1.2,0.9-1.4,2.6-0.5,3.8c0,0,0,0,0,0l0.6,0.7c2.2,2.9,4.6,6,6.5,9.1c-2.7,0.5-5.4,1.3-7.9,2
			c-1.7,0.5-3.3,1-4.9,1.4c-2.6,0.6-2.1,2.9-1.6,5.5c0.3,1.4,0.7,3.3,1.1,5.2c0.4,1.8,0.8,4.1,1.2,5.8c-2.5-0.3-5.2-1-7.9-1.8
			c-1.7-0.5-3.4-0.9-4.9-1.2c-1.5-0.3-2.9,0.6-3.2,2.1c0,0.1,0,0.3-0.1,0.4c-0.2,1.1-1.2,6.7-2.1,10.9c-3.8-2.7-9.2-5.5-11.1-5.5
			c-5.7,0-8.9,5.5-11.1,10.2c-2.4-3.8-5.8-8.1-7.1-8.8c-1.1-0.6-2.3-1-3.6-1c-3.2,0-6,2.1-8,3.5c-0.1,0.1-1.2,0.9-2.4,1.9
			c-0.2,0.2-0.4,0.3-0.7,0.5c-0.5-5.5-1.2-11.5-5.1-13.5c-1.2-0.6-2.6-0.9-4.2-0.9c-2.9,0-6.1,1.1-8.9,2.1
			c1.1-4.8,2.4-12.1,0.8-14.2c-2-2.6-6.6-3.3-13-3.9c2.6-3.6,6.8-10,6.4-12.5c-0.7-4.7-5.8-7-9.8-8.9c-0.1-0.1-0.3-0.1-0.4-0.2
			c3.8-2.4,7.3-5.2,10.1-8.2c1.8-1.9,0.6-4-3.6-10.1c-0.9-1.3-2-2.9-3-4.2c3.4-1,7.7-2.1,10.3-2.1c0.5,0,0.8,0.1,0.9,0.1
			c0,0,0,0,0,0c1.4,0.4,2.9-0.5,3.3-2c0.2-0.9,0-1.8-0.6-2.5c-0.7-1.7-1.7-8.2-2.2-11.6c0.1,0,0.2,0,0.3,0.1
			c2.9,0.7,5.9,1.5,8.9,1.7c0.4,0,0.9,0.1,1.3,0.1c6,0,6.6-4.6,7.1-7.6c0.1-0.6,0.2-1.3,0.3-2c0-0.1,0.1-0.5,0.2-1
			c0.3-1.3,0.6-2.4,0.8-3.4c2.3,1.7,4.7,3.4,7.1,4.8c1.8,1,3.1,1.7,4.6,1.7c2.3,0,3.7-1.7,4.8-3c1.9-2.3,3.5-4.9,5-7.5
			c0.1-0.3,0.3-0.5,0.4-0.8c2.4,3.5,4.9,7.1,7,10.8c0.4,0.6,1,1.1,1.7,1.3c0.7,0.2,1.5,0,2.1-0.4c1.4-1,2.9-2.2,4.3-3.3
			c2.2-1.8,4.4-3.7,6.7-4.7c0.7,2.5,1.1,5.2,1.5,7.9c0.3,1.9,0.6,3.8,1,5.7c0.2,0.7,0.6,1.4,1.3,1.8c0.7,0.4,1.4,0.5,2.2,0.2
			c4.3-1.3,9.1-2.2,13.1-2.8c0,4.4-0.9,9.4-2.7,12c-0.6,0.9-0.6,2.2,0,3.1c0.7,0.9,1.8,1.3,2.9,1c0.5-0.1,1.2-0.2,1.9-0.2
			c3,0,6.8,1.3,10,2.4c-1.8,3.3-4.9,8.7-6.3,10.3c-0.6,0.2-1.1,0.6-1.5,1.2c-0.7,1.3-0.3,2.9,0.9,3.7c0.9,0.5,1.8,1.1,2.7,1.6
			c2.9,1.7,5.9,3.4,8.4,5.4C397.2,395,391.7,398.8,390,399.7z"/>
		<path d="M327.7,380.6c-0.6-3.3-5.5-1.9-5,1.4c0.5,2.9,1.1,5.9,1.7,8.8c-2.5-2.6-5.1-5.2-7.7-7.7c-2-1.9-5,0.4-4.4,2.5
			c0,0.2,0,0.3,0,0.5c0.8,4.8,1.5,9.5,2,14.3c0.3,3.3,5.5,3.3,5.2,0c-0.3-2.8-0.6-5.5-1-8.3c2.8,2.9,5.5,5.8,8.2,8.8
			c1,2.8,5.7,1.5,4.9-1.7C330.1,393,328.8,386.8,327.7,380.6z"/>
		<path d="M342.5,386.7h-4.9c-0.3-1.5-0.5-2.9-0.7-4.4h2c3.3,0,3.3-5.2,0-5.2H334c-1.9,0-2.7,1.7-2.5,3.1c-0.1,0.3-0.1,0.6,0,1
			c0.8,5.6,1.8,11.2,3.1,16.8c0.1,0.4,0.3,0.8,0.5,1c0.4,0.8,1.3,1.4,2.3,1.4h3.6c1.4,0,2.6-1.2,2.6-2.6c0-1.4-1.2-2.6-2.6-2.6h-1.7
			c-0.3-1.1-0.5-2.2-0.7-3.4h4C345.9,391.9,345.9,386.7,342.5,386.7z"/>
		<path d="M366.2,378.5c-0.8,4.1-1.6,8.3-2.2,12.4c-0.9-1.2-1.8-2.4-2.8-3.5c-1.1-1.3-2.6-0.9-3.6,0c-0.3,0.2-0.5,0.4-0.8,0.7
			c-0.8,1.1-1.5,2.2-2.3,3.3c-1.4-3.9-2.7-7.8-3.8-11.8c-0.9-3.2-5.9-1.8-5,1.4c1.6,5.4,3.4,10.8,5.4,16c0,0.1,0.1,0.1,0.1,0.2
			c0.3,1.9,3.4,3.1,4.9,1c1.1-1.6,2.2-3.2,3.3-4.8c1.3,1.7,2.4,3.5,3.6,5.3c0.6,2.2,4.7,1.9,5.1-1c0.8-6,1.8-12,3-17.9
			C371.8,376.6,366.8,375.2,366.2,378.5z"/>
	</g>
</g>
<path fill="#E2E2E2" d="M629,604c-19.5-3.4-54.8-9.6-75-40c-17.6-26.5-13.5-56.1-12-67c5.9-42.5,36.5-84.7,80-101
	c64.4-24.1,152.5,10.6,167,73c10.7,45.8-21.6,92.1-54,115C691.3,614.9,642.9,606.4,629,604z"/>
<g>
	<path d="M260.2,485.7v6.5h-4v-17.1h6.6c2,0,3.5,0.5,4.7,1.4s1.7,2.2,1.7,3.8c0,0.9-0.2,1.6-0.7,2.3s-1.2,1.1-2.1,1.5
		c1,0.3,1.8,0.8,2.3,1.5s0.7,1.6,0.7,2.6v1.1c0,0.4,0.1,1,0.2,1.5s0.4,1,0.7,1.2v0.2h-4.1c-0.3-0.2-0.5-0.7-0.6-1.3
		s-0.1-1.2-0.1-1.7v-1c0-0.8-0.2-1.4-0.6-1.9s-1.1-0.6-1.9-0.6H260.2z M260.2,482.7h2.6c0.8,0,1.4-0.2,1.8-0.5s0.6-0.9,0.6-1.6
		c0-0.7-0.2-1.3-0.7-1.7s-1-0.6-1.8-0.6h-2.6V482.7z"/>
	<path d="M277.7,492.5c-1.9,0-3.4-0.6-4.5-1.8s-1.7-2.6-1.7-4.4v-0.4c0-1.9,0.5-3.5,1.5-4.7s2.5-1.8,4.3-1.8c1.7,0,3.1,0.5,4,1.5
		s1.5,2.4,1.5,4.2v2.1h-7.2l0,0.1c0.1,0.6,0.4,1.2,0.8,1.6s1,0.6,1.8,0.6c0.8,0,1.3-0.1,1.8-0.2s1-0.3,1.7-0.6l0.9,2.4
		c-0.6,0.4-1.3,0.7-2.2,1S278.7,492.5,277.7,492.5z M277.4,482.4c-0.6,0-1,0.2-1.3,0.6s-0.5,0.9-0.5,1.6l0,0.1h3.4v-0.3
		c0-0.6-0.1-1.1-0.4-1.5S277.9,482.4,277.4,482.4z"/>
	<path d="M284,486c0-2,0.4-3.6,1.3-4.8s2.1-1.8,3.6-1.8c0.7,0,1.3,0.2,1.8,0.5s0.9,0.8,1.3,1.4l0.3-1.6h3.5v12.2
		c0,1.7-0.6,3.1-1.7,4.1s-2.7,1.5-4.7,1.5c-0.7,0-1.3-0.1-2.1-0.3s-1.4-0.4-2.1-0.7l0.6-2.9c0.6,0.3,1.1,0.4,1.7,0.6
		s1.1,0.2,1.8,0.2c0.8,0,1.4-0.2,1.9-0.7s0.6-1,0.6-1.8v-0.6c-0.4,0.5-0.8,0.8-1.3,1s-1,0.4-1.6,0.4c-1.6,0-2.8-0.6-3.6-1.7
		s-1.3-2.7-1.3-4.6V486z M288,486.2c0,1,0.2,1.8,0.5,2.4s0.8,0.9,1.5,0.9c0.4,0,0.8-0.1,1.1-0.2s0.6-0.3,0.8-0.6v-5.3
		c-0.2-0.3-0.4-0.5-0.8-0.7s-0.7-0.2-1.1-0.2c-0.7,0-1.2,0.3-1.5,1s-0.5,1.5-0.5,2.6V486.2z"/>
	<path d="M302.2,476.7h-4V474h4V476.7z M302.2,492.3h-4v-12.7h4V492.3z"/>
	<path d="M311.2,488.7c0-0.3-0.2-0.6-0.5-0.8s-1-0.5-1.9-0.7c-1.5-0.3-2.6-0.7-3.3-1.3s-1.1-1.4-1.1-2.5c0-1.1,0.5-2.1,1.4-2.8
		s2.2-1.2,3.8-1.2c1.7,0,3,0.4,4,1.1s1.5,1.7,1.4,2.9l0,0.1h-3.8c0-0.5-0.1-0.9-0.4-1.1s-0.7-0.4-1.2-0.4c-0.4,0-0.8,0.1-1,0.3
		s-0.4,0.5-0.4,0.9c0,0.3,0.2,0.6,0.5,0.9s1,0.4,2,0.6c1.5,0.3,2.7,0.8,3.4,1.4s1.1,1.5,1.1,2.6c0,1.1-0.5,2.1-1.5,2.8
		s-2.3,1.1-4,1.1c-1.7,0-3.1-0.4-4.1-1.3s-1.5-1.9-1.4-2.9l0-0.1h3.6c0,0.6,0.2,1,0.5,1.3s0.8,0.4,1.5,0.4c0.5,0,0.9-0.1,1.2-0.3
		S311.2,489.1,311.2,488.7z"/>
	<path d="M321.6,476.5v3.2h2.1v2.7h-2.1v5.8c0,0.5,0.1,0.8,0.3,1s0.4,0.3,0.7,0.3c0.3,0,0.4,0,0.6,0s0.3,0,0.6-0.1l0.3,2.9
		c-0.4,0.1-0.8,0.2-1.2,0.2s-0.8,0.1-1.2,0.1c-1.3,0-2.3-0.3-3-1s-1-1.8-1-3.3v-5.8h-1.8v-2.7h1.8v-3.2H321.6z"/>
	<path d="M332.8,483.1l-1.4,0c-0.5,0-0.8,0.1-1.1,0.2s-0.5,0.4-0.6,0.7v8.3h-4v-12.7h3.7l0.1,1.9c0.3-0.7,0.6-1.2,1.1-1.5
		s0.9-0.6,1.5-0.6c0.2,0,0.4,0,0.6,0s0.4,0.1,0.5,0.1L332.8,483.1z"/>
	<path d="M341.5,492.3c-0.1-0.2-0.2-0.4-0.3-0.7s-0.2-0.5-0.2-0.8c-0.4,0.5-0.8,0.9-1.4,1.2s-1.2,0.5-1.9,0.5c-1.2,0-2.2-0.3-2.9-1
		s-1.1-1.6-1.1-2.8c0-1.3,0.5-2.2,1.4-2.9s2.4-1,4.3-1h1.4v-0.9c0-0.5-0.1-1-0.4-1.2s-0.6-0.4-1.2-0.4c-0.5,0-0.8,0.1-1,0.3
		s-0.3,0.5-0.3,1l-3.8,0l0-0.1c-0.1-1.2,0.4-2.1,1.4-2.9s2.4-1.2,4-1.2c1.6,0,2.8,0.4,3.8,1.2s1.5,1.9,1.5,3.4v4.8
		c0,0.7,0.1,1.3,0.2,1.9s0.3,1.2,0.5,1.7L341.5,492.3z M338.9,489.7c0.4,0,0.8-0.1,1.1-0.2s0.6-0.4,0.8-0.6v-2h-1.4
		c-0.6,0-1.1,0.2-1.4,0.5s-0.4,0.7-0.4,1.2c0,0.4,0.1,0.7,0.4,0.9S338.5,489.7,338.9,489.7z"/>
	<path d="M351.7,476.5v3.2h2.1v2.7h-2.1v5.8c0,0.5,0.1,0.8,0.3,1s0.4,0.3,0.7,0.3c0.3,0,0.4,0,0.6,0s0.3,0,0.6-0.1l0.3,2.9
		c-0.4,0.1-0.8,0.2-1.2,0.2s-0.8,0.1-1.2,0.1c-1.3,0-2.3-0.3-3-1s-1-1.8-1-3.3v-5.8h-1.8v-2.7h1.8v-3.2H351.7z"/>
	<path d="M359.8,476.7h-4V474h4V476.7z M359.8,492.3h-4v-12.7h4V492.3z"/>
	<path d="M361.7,485.8c0-1.9,0.5-3.5,1.6-4.7s2.6-1.8,4.5-1.8c1.9,0,3.4,0.6,4.5,1.8s1.6,2.8,1.6,4.7v0.2c0,1.9-0.5,3.5-1.6,4.7
		s-2.6,1.8-4.5,1.8c-1.9,0-3.5-0.6-4.5-1.8s-1.6-2.8-1.6-4.7V485.8z M365.7,486.1c0,1.1,0.2,1.9,0.5,2.5s0.9,0.9,1.7,0.9
		c0.8,0,1.3-0.3,1.7-0.9s0.5-1.4,0.5-2.5v-0.2c0-1-0.2-1.9-0.5-2.5s-0.9-0.9-1.7-0.9c-0.8,0-1.3,0.3-1.7,0.9s-0.5,1.4-0.5,2.5V486.1
		z"/>
	<path d="M379.4,479.6l0.2,1.8c0.4-0.6,0.9-1.1,1.5-1.5s1.3-0.5,2-0.5c1.2,0,2.2,0.4,2.9,1.2s1,2.1,1,3.8v7.9h-4v-7.9
		c0-0.7-0.2-1.2-0.5-1.5s-0.7-0.5-1.3-0.5c-0.4,0-0.7,0.1-1,0.2s-0.5,0.3-0.7,0.6v9.1h-3.9v-12.7H379.4z"/>
</g>
<g>
	<g>
		<path d="M676.7,427.1c-30.5-1.1-62.6,16.7-59.8,51c0.1,2.4,2.8,13.1-7.9,21.8c-3.8,3.1-2.8,9.1,2.6,12.1c1.8,1,3.7,1.6,5.6,2.1
			c-0.4,2.1-0.2,4.3,0.8,6.4c-2.5,4.9,0.8,9.4,3.8,10.5c1.4,0.7,0.3,3.2,0.5,5.3c0.4,6,7.6,8.9,12.2,8.2c8.3-1.3,17.6-0.9,20.7,8.2
			c0.6,1.8,2.2,2.3,3.9,2.5c3.8,0.5,46.9-4.4,48.2-5.2c1.8-0.6,3.3-2.6,2.1-4.8c-10-18.6,10-38.3,13.8-56.1
			C729.5,459.6,704.5,427.1,676.7,427.1z M717,486.8c-4.2,19.1-22.4,37.5-15.2,57.5c-13.6,1.8-41,4.7-41.1,4.7
			c-4.9-10.9-16.3-12.8-27.5-11.1c-1.5,0.3-4.7-0.1-4.6-2.9c0.9-6.4-3.2-10-4.8-10.4c-0.6-0.2-0.4-0.5-0.4-0.5
			c3.1-3.4-1.5-6.6,0.8-11c1.4-2.7-0.4-4.5-3.4-4.9c-3.7-0.4-5.7-1.8-7-2.4c-0.6-0.3-0.9-0.8-0.3-1.5c11.9-10.8,9.9-26.1,9.9-26.2
			c-2.7-33.2,31.3-46.4,53.6-44.5C703.4,436,721.5,461.9,717,486.8z"/>
		<path d="M659.8,461.6c-8.7,5.2-10.5,15.7-6.9,24.6c0.9,2.1,2.2,4,3.3,6c3.1,5.9,1,5.4,1,7.6c0,2.6,0.7,7.4,1,8.7
			c0.2,1.4,1.3,2.7,3.1,2.7c21.3,0,21.6,1.3,22.8-1.2c0.7-1.2,0.4-2,0.4-9c0-3.4-3.5-0.4,2.9-9.1c1.6-2.2,3.2-4.3,4.3-6.9
			c2.2-5.4,1.9-11.6-1-16.7C684.5,457.6,669.7,455.6,659.8,461.6z M678,505c-4.6-0.2-9.2-0.2-13.8-0.2c-0.1-0.7-0.2-1.4-0.2-2.1
			c4.7-0.1,9.4,0.1,14.1,0.6L678,505L678,505z M683.8,486.2c-1.9,2-4.7,5-6.4,10.5c-1.1-0.1-2.2-0.2-3.4-0.3c0-1.3-0.7-3.9,0.5-8.8
			c0-0.2,0.1-0.3,0.1-0.4l3.4-3.4c2.3-2.3-1.2-5.7-3.5-3.5L673,482c-0.5-0.8-1.1-1.7-1.7-2.5c-1.6-2-5.9,0.4-3.5,3.5
			c0.8,1.1,1.4,2.3,2,3.5c-0.8,3.2-1,6.4-0.6,9.6c-1.7,0-3.4-0.1-5.1,0c-0.3-3.5-1.7-5.9-3-7.9c-0.8-1.3-9.3-14.2,2.9-21.6
			c6.8-4.1,15-1.8,20.4,3.4C690.8,478.7,684.9,485,683.8,486.2z"/>
		<path d="M645.1,473.3c-2.8,0-5.6-0.3-8.4-0.5c-3-0.3-2.9,4.3,0,4.6c2.8,0.3,5.6,0.5,8.4,0.5C648.1,477.9,648.1,473.3,645.1,473.3z
			"/>
		<path d="M658.4,454.4c-1.6-2.5-3.3-4.9-5.2-7.1c-1.9-2.3-5.2,1-3.3,3.3c1.7,1.9,3.1,4.1,4.5,6.2
			C656.1,459.2,660.1,456.9,658.4,454.4z"/>
		<path d="M687.6,455.5c1.2-1.9,2.4-3.9,3.6-5.9c1.5-2.6-2.5-4.9-4-2.3c-1.1,2-2.4,3.9-3.6,5.9C682,455.7,686,458,687.6,455.5z"/>
		<path d="M699,475c2.9-0.8,5.8-2,8.5-3.3c2.7-1.3,0.3-5.3-2.3-4c-2.4,1.2-4.8,2.1-7.4,2.8C694.9,471.3,696.2,475.8,699,475z"/>
	</g>
</g>
<g>
	<path d="M664.8,588.4h-6.8v6.9h-4v-17.1h12v3h-8v4.1h6.8V588.4z"/>
	<path d="M671.7,579.7h-4V577h4V579.7z M671.7,595.3h-4v-12.7h4V595.3z"/>
	<path d="M681.3,586.1l-1.4,0c-0.5,0-0.8,0.1-1.1,0.2s-0.5,0.4-0.6,0.7v8.3h-4v-12.7h3.7l0.1,1.9c0.3-0.7,0.6-1.2,1.1-1.5
		s0.9-0.6,1.5-0.6c0.2,0,0.4,0,0.6,0s0.4,0.1,0.5,0.1L681.3,586.1z"/>
	<path d="M689.6,591.7c0-0.3-0.2-0.6-0.5-0.8s-1-0.5-1.9-0.7c-1.5-0.3-2.6-0.7-3.3-1.3s-1.1-1.4-1.1-2.5c0-1.1,0.5-2.1,1.4-2.8
		s2.2-1.2,3.8-1.2c1.7,0,3,0.4,4,1.1s1.5,1.7,1.4,2.9l0,0.1h-3.8c0-0.5-0.1-0.9-0.4-1.1s-0.7-0.4-1.2-0.4c-0.4,0-0.8,0.1-1,0.3
		s-0.4,0.5-0.4,0.9c0,0.3,0.2,0.6,0.5,0.9s1,0.4,2,0.6c1.5,0.3,2.7,0.8,3.4,1.4s1.1,1.5,1.1,2.6c0,1.1-0.5,2.1-1.5,2.8
		s-2.3,1.1-4,1.1c-1.7,0-3.1-0.4-4.1-1.3s-1.5-1.9-1.4-2.9l0-0.1h3.6c0,0.6,0.2,1,0.5,1.3s0.8,0.4,1.5,0.4c0.5,0,0.9-0.1,1.2-0.3
		S689.6,592.1,689.6,591.7z"/>
	<path d="M700,579.5v3.2h2.1v2.7H700v5.8c0,0.5,0.1,0.8,0.3,1s0.4,0.3,0.7,0.3c0.3,0,0.4,0,0.6,0s0.3,0,0.6-0.1l0.3,2.9
		c-0.4,0.1-0.8,0.2-1.2,0.2s-0.8,0.1-1.2,0.1c-1.3,0-2.3-0.3-3-1s-1-1.8-1-3.3v-5.8h-1.8v-2.7h1.8v-3.2H700z"/>
	<path d="M714.1,579.7h-4V577h4V579.7z M714.1,595.3h-4v-12.7h4V595.3z"/>
	<path d="M720.2,582.6l0.2,1.8c0.4-0.6,0.9-1.1,1.5-1.5s1.3-0.5,2-0.5c1.2,0,2.2,0.4,2.9,1.2s1,2.1,1,3.8v7.9h-4v-7.9
		c0-0.7-0.2-1.2-0.5-1.5s-0.7-0.5-1.3-0.5c-0.4,0-0.7,0.1-1,0.2s-0.5,0.3-0.7,0.6v9.1h-3.9v-12.7H720.2z"/>
	<path d="M734.7,579.5v3.2h2.1v2.7h-2.1v5.8c0,0.5,0.1,0.8,0.3,1s0.4,0.3,0.7,0.3c0.3,0,0.4,0,0.6,0s0.3,0,0.6-0.1l0.3,2.9
		c-0.4,0.1-0.8,0.2-1.2,0.2s-0.8,0.1-1.2,0.1c-1.3,0-2.3-0.3-3-1s-1-1.8-1-3.3v-5.8H729v-2.7h1.8v-3.2H734.7z"/>
	<path d="M744.5,595.5c-1.9,0-3.4-0.6-4.5-1.8s-1.7-2.6-1.7-4.4v-0.4c0-1.9,0.5-3.5,1.5-4.7s2.5-1.8,4.3-1.8c1.7,0,3.1,0.5,4,1.5
		s1.5,2.4,1.5,4.2v2.1h-7.2l0,0.1c0.1,0.6,0.4,1.2,0.8,1.6s1,0.6,1.8,0.6c0.8,0,1.3-0.1,1.8-0.2s1-0.3,1.7-0.6l0.9,2.4
		c-0.6,0.4-1.3,0.7-2.2,1S745.5,595.5,744.5,595.5z M744.2,585.4c-0.6,0-1,0.2-1.3,0.6s-0.5,0.9-0.5,1.6l0,0.1h3.4v-0.3
		c0-0.6-0.1-1.1-0.4-1.5S744.8,585.4,744.2,585.4z"/>
	<path d="M758.6,586.1l-1.4,0c-0.5,0-0.8,0.1-1.1,0.2s-0.5,0.4-0.6,0.7v8.3h-4v-12.7h3.7l0.1,1.9c0.3-0.7,0.6-1.2,1.1-1.5
		s0.9-0.6,1.5-0.6c0.2,0,0.4,0,0.6,0s0.4,0.1,0.5,0.1L758.6,586.1z"/>
	<path d="M765.2,590.1l0.2,1.3l0.1,0l0.3-1.4l1.7-7.5h4.2l-4.1,12.7h-4l-4.1-12.7h4.2L765.2,590.1z"/>
	<path d="M777,579.7h-4V577h4V579.7z M777,595.3h-4v-12.7h4V595.3z"/>
	<path d="M785.2,595.5c-1.9,0-3.4-0.6-4.5-1.8s-1.7-2.6-1.7-4.4v-0.4c0-1.9,0.5-3.5,1.5-4.7s2.5-1.8,4.3-1.8c1.7,0,3.1,0.5,4,1.5
		s1.5,2.4,1.5,4.2v2.1h-7.2l0,0.1c0.1,0.6,0.4,1.2,0.8,1.6s1,0.6,1.8,0.6c0.8,0,1.3-0.1,1.8-0.2s1-0.3,1.7-0.6l0.9,2.4
		c-0.6,0.4-1.3,0.7-2.2,1S786.2,595.5,785.2,595.5z M784.9,585.4c-0.6,0-1,0.2-1.3,0.6s-0.5,0.9-0.5,1.6l0,0.1h3.4v-0.3
		c0-0.6-0.1-1.1-0.4-1.5S785.5,585.4,784.9,585.4z"/>
	<path d="M803,590L803,590l1.4-7.3h3.7l-3,12.7h-3.4l-2.1-6.7h-0.1l-2.1,6.7h-3.3l-3-12.7h3.7l1.4,7.4h0.1l2.1-7.4h2.5L803,590z"/>
</g>
<path fill="#E2E2E2" d="M918,356c-35.4-26.1-57.3-75.6-43-112c24.1-61.1,148-78.4,188-25c30.7,40.9,14.1,125.9-42,152
	C985,387.7,943.9,375.1,918,356z"/>
<g>
	<path fill="none" stroke="#000000" stroke-width="4" stroke-miterlimit="10" d="M446.2,349.4c2.4-0.3,5.8-0.6,10-0.9"/>
	<path fill="none" stroke="#000000" stroke-width="4" stroke-miterlimit="10" stroke-dasharray="19.8919,19.8919" d="M476.1,348.1
		c29.3,0.6,71.4,7,101.2,34.8"/>
	<path fill="none" stroke="#000000" stroke-width="4" stroke-miterlimit="10" d="M584.2,390.1c2.2,2.5,4.3,5.1,6.3,7.8"/>
	<g>
		<ellipse transform="matrix(0.9915 -0.1304 0.1304 0.9915 -41.7542 61.2089)" cx="446.5" cy="349.4" rx="4.5" ry="4.5"/>
	</g>
	<g>
		<polygon points="577.8,397.5 578.2,395.1 589.9,397.2 591.1,385.4 593.4,385.7 592,400 		"/>
	</g>
</g>
<g>
	<g>
		<path d="M985.8,218.9c-0.4-0.1-0.8-0.1-1.1-0.1c-0.7-0.3-1.6-0.5-2.5-0.3c-26.9,3.8-51.8,14.3-74.2,29.4c-3.2,2.2-2.1,6.5,0.5,7.8
			c0.3,0.7,0.8,1.3,1.6,1.8c7.8,4.9,16,8.6,24.5,11.4c-0.1,0.6-0.2,1.1-0.2,1.8c0,0.1,0,0.1,0,0.2c-0.2,0.5-0.4,1-0.4,1.6
			c-0.8,8.2-1.2,16.4-0.9,24.7c0.1,2.7,2.2,4.1,4.4,4.2c5,2.5,10.2,4.5,15.4,5.9c0.5,6.2,0.9,12.4,1.3,18.7c-6.2,3.3-9.3,9-8.1,15.8
			c0,1.5,0.8,2.9,2.1,3.7c3.2,2,7,3.2,10.8,2.8c0,0,0.1,0,0.1,0c0.5,0,1,0,1.5-0.1c4-1.2,7.7-3.7,9.5-7.6c0.3-0.7,0.5-1.5,0.5-2.2
			c0.3-0.6,0.5-1.3,0.5-2.2c-0.1-3.3-1.1-6.6-3.6-8.9c-1.4-1.3-3-2.1-4.8-2.6c-0.3-5.1-0.7-10.2-1.1-15.4
			c21.3,3.8,43.6-0.1,62.8-11.4c0.9-0.5,1.5-1.3,1.8-2.1c0.7-0.7,1.2-1.7,1.2-3c0-7.4,0-14.7,0.4-22.1c0-0.5,0-0.9-0.1-1.3
			c0.1-0.3,0.1-0.6,0.1-0.9v-2.2c0-0.1,0-0.2,0-0.3c6.9-2.8,13.7-5.9,20.4-9.4c1.2-0.6,1.9-1.6,2.1-2.6c1.3-1.5,1.6-3.8-0.4-5.5
			C1032,232.5,1009.2,224.1,985.8,218.9z M941.8,293.8c-0.1-7.1,0.2-14.1,0.9-21.2c0.2-0.4,0.3-0.7,0.4-1.1c2.5,0.6,4.9,1.2,7.4,1.7
			c0.6,8.3,1.2,16.6,1.8,24.9C948.7,296.9,945.2,295.5,941.8,293.8z M962,333.8c0.1,0.1,0.2,0.3,0.3,0.4c0,0,0.2,0.7,0.3,0.8
			c0,0.1,0,0.2,0.1,0.3c0,0.3,0,0.5,0,0.8c0,0.1,0,0.1,0,0.2c-0.2,0.5-0.5,0.9-0.8,1.4c0,0-0.1,0.1-0.1,0.1
			c-0.2,0.2-0.5,0.5-0.7,0.7c0,0-0.1,0.1-0.1,0.1c-0.3,0.2-0.6,0.4-1,0.6c-0.1,0-0.4,0.2-0.6,0.3c-0.2,0.1-0.3,0.1-0.5,0.2
			c-1.6,0.1-3-0.1-4.4-0.6c-0.1-2.7,1.6-4.2,4.2-5.6c0.3-0.2,0.6-0.4,0.9-0.6c0.2,0,0.6,0.1,0.7,0.1c0.1,0,0.5,0.2,0.7,0.2
			c0.3,0.2,0.6,0.4,0.7,0.4C961.8,333.6,961.9,333.8,962,333.8z M1019.3,270.7c-0.4,6.8-0.4,13.6-0.4,20.3
			c-17.7,10.1-38.3,13.4-57.8,9.4c-0.6-8.5-1.3-17.1-1.9-25.6c8,1.3,16.1,2.2,24.2,2.8c0.4,0.1,0.8,0.1,1.3,0
			c12-1.5,23.5-4.4,34.7-8.4c0,0.1,0.1,0.3,0.1,0.4C1019.4,270,1019.4,270.4,1019.3,270.7z M984.7,269c-0.1,0-0.2,0.1-0.4,0.1
			c-0.2,0-0.3-0.1-0.5-0.1c-7.5-0.5-14.9-1.3-22.3-2.5c6.4-5.9,13-11.8,19.7-17.4c4.3-3.6-1.9-9.7-6.1-6.1
			c-7.9,6.7-15.7,13.6-23.2,20.7c-0.4,0.2-0.7,0.5-1,0.8c-11.6-2.6-22.7-6.5-33.2-12.5c20-12.6,41.8-21.3,65.3-24.9
			c0.2,0.1,0.4,0.1,0.6,0.2c20.1,4.5,40.1,11.2,56.3,24C1022.4,259.9,1004.1,266.5,984.7,269z"/>
	</g>
</g>
<g>
	<path d="M1000.1,172.3h-4.5v14h-4v-14h-4.5v-3h12.9V172.3z"/>
	<path d="M1007.9,177.1l-1.4,0c-0.5,0-0.8,0.1-1.1,0.2s-0.5,0.4-0.6,0.7v8.3h-4v-12.7h3.7l0.1,1.9c0.3-0.7,0.6-1.2,1.1-1.5
		s0.9-0.6,1.5-0.6c0.2,0,0.4,0,0.6,0s0.4,0.1,0.5,0.1L1007.9,177.1z"/>
	<path d="M1016.6,186.3c-0.1-0.2-0.2-0.4-0.3-0.7s-0.2-0.5-0.2-0.8c-0.4,0.5-0.8,0.9-1.4,1.2s-1.2,0.5-1.9,0.5c-1.2,0-2.2-0.3-2.9-1
		s-1.1-1.6-1.1-2.8c0-1.3,0.5-2.2,1.4-2.9s2.4-1,4.3-1h1.4v-0.9c0-0.5-0.1-1-0.4-1.2s-0.6-0.4-1.2-0.4c-0.5,0-0.8,0.1-1,0.3
		s-0.3,0.5-0.3,1l-3.8,0l0-0.1c-0.1-1.2,0.4-2.1,1.4-2.9s2.4-1.2,4-1.2c1.6,0,2.8,0.4,3.8,1.2s1.5,1.9,1.5,3.4v4.8
		c0,0.7,0.1,1.3,0.2,1.9s0.3,1.2,0.5,1.7L1016.6,186.3z M1014,183.7c0.4,0,0.8-0.1,1.1-0.2s0.6-0.4,0.8-0.6v-2h-1.4
		c-0.6,0-1.1,0.2-1.4,0.5s-0.4,0.7-0.4,1.2c0,0.4,0.1,0.7,0.4,0.9S1013.6,183.7,1014,183.7z"/>
	<path d="M1026.2,170.7h-4V168h4V170.7z M1026.2,186.3h-4v-12.7h4V186.3z"/>
	<path d="M1032.3,173.6l0.2,1.8c0.4-0.6,0.9-1.1,1.5-1.5s1.3-0.5,2-0.5c1.2,0,2.2,0.4,2.9,1.2s1,2.1,1,3.8v7.9h-4v-7.9
		c0-0.7-0.2-1.2-0.5-1.5s-0.7-0.5-1.3-0.5c-0.4,0-0.7,0.1-1,0.2s-0.5,0.3-0.7,0.6v9.1h-3.9v-12.7H1032.3z"/>
	<path d="M1047.6,179.8c0-1.9,0.5-3.5,1.6-4.7s2.6-1.8,4.5-1.8c1.9,0,3.4,0.6,4.5,1.8s1.6,2.8,1.6,4.7v0.2c0,1.9-0.5,3.5-1.6,4.7
		s-2.6,1.8-4.5,1.8c-1.9,0-3.5-0.6-4.5-1.8s-1.6-2.8-1.6-4.7V179.8z M1051.5,180.1c0,1.1,0.2,1.9,0.5,2.5s0.9,0.9,1.7,0.9
		c0.8,0,1.3-0.3,1.7-0.9s0.5-1.4,0.5-2.5v-0.2c0-1-0.2-1.9-0.5-2.5s-0.9-0.9-1.7-0.9c-0.8,0-1.3,0.3-1.7,0.9s-0.5,1.4-0.5,2.5V180.1
		z"/>
	<path d="M1062.4,186.3v-9.9h-1.8v-2.7h1.8v-1.3c0-1.5,0.4-2.6,1.3-3.4s2.1-1.2,3.7-1.2c0.3,0,0.6,0,0.9,0.1s0.7,0.1,1,0.2l-0.3,2.9
		c-0.2,0-0.4-0.1-0.6-0.1s-0.4,0-0.6,0c-0.5,0-0.9,0.1-1.1,0.4s-0.4,0.6-0.4,1.1v1.3h2.5v2.7h-2.5v9.9H1062.4z"/>
	<path d="M1075,170.5v3.2h2.1v2.7h-2.1v5.8c0,0.5,0.1,0.8,0.3,1s0.4,0.3,0.7,0.3c0.3,0,0.4,0,0.6,0s0.3,0,0.6-0.1l0.3,2.9
		c-0.4,0.1-0.8,0.2-1.2,0.2s-0.8,0.1-1.2,0.1c-1.3,0-2.3-0.3-3-1s-1-1.8-1-3.3v-5.8h-1.8v-2.7h1.8v-3.2H1075z"/>
	<path d="M1084.8,186.5c-1.9,0-3.4-0.6-4.5-1.8s-1.7-2.6-1.7-4.4v-0.4c0-1.9,0.5-3.5,1.5-4.7s2.5-1.8,4.3-1.8c1.7,0,3.1,0.5,4,1.5
		s1.5,2.4,1.5,4.2v2.1h-7.2l0,0.1c0.1,0.6,0.4,1.2,0.8,1.6s1,0.6,1.8,0.6c0.8,0,1.3-0.1,1.8-0.2s1-0.3,1.7-0.6l0.9,2.4
		c-0.6,0.4-1.3,0.7-2.2,1S1085.8,186.5,1084.8,186.5z M1084.5,176.4c-0.6,0-1,0.2-1.3,0.6s-0.5,0.9-0.5,1.6l0,0.1h3.4v-0.3
		c0-0.6-0.1-1.1-0.4-1.5S1085.1,176.4,1084.5,176.4z"/>
	<path d="M1095.3,173.6l0.2,1.8c0.4-0.6,0.9-1.1,1.5-1.5s1.3-0.5,2-0.5c1.2,0,2.2,0.4,2.9,1.2s1,2.1,1,3.8v7.9h-4v-7.9
		c0-0.7-0.2-1.2-0.5-1.5s-0.7-0.5-1.3-0.5c-0.4,0-0.7,0.1-1,0.2s-0.5,0.3-0.7,0.6v9.1h-3.9v-12.7H1095.3z"/>
	<path d="M1122,181L1122,181l1.4-7.3h3.7l-3,12.7h-3.4l-2.1-6.7h-0.1l-2.1,6.7h-3.3l-3-12.7h3.7l1.4,7.4h0.1l2.1-7.4h2.5L1122,181z"
		/>
	<path d="M1132.7,170.7h-4V168h4V170.7z M1132.7,186.3h-4v-12.7h4V186.3z"/>
	<path d="M1139.8,170.5v3.2h2.1v2.7h-2.1v5.8c0,0.5,0.1,0.8,0.3,1s0.4,0.3,0.7,0.3c0.3,0,0.4,0,0.6,0s0.3,0,0.6-0.1l0.3,2.9
		c-0.4,0.1-0.8,0.2-1.2,0.2s-0.8,0.1-1.2,0.1c-1.3,0-2.3-0.3-3-1s-1-1.8-1-3.3v-5.8h-1.8v-2.7h1.8v-3.2H1139.8z"/>
	<path d="M1147.7,175.2c0.4-0.6,0.8-1,1.4-1.3s1.2-0.5,1.8-0.5c1.3,0,2.3,0.5,3.1,1.4s1.1,2.3,1.1,4.3v7.3h-4V179c0-1-0.1-1.6-0.4-2
		s-0.7-0.6-1.3-0.6c-0.4,0-0.7,0.1-1,0.2s-0.5,0.3-0.7,0.5v9.2h-4V168h4V175.2z"/>
	<path d="M1014.7,209.5L1014.7,209.5L1014.7,209.5l2.2-7.1h4.2L1016,217c-0.4,0.9-0.9,1.7-1.5,2.3s-1.6,0.9-2.9,0.9
		c-0.3,0-0.6,0-0.8-0.1s-0.6-0.1-1-0.2l0.5-2.8c0.1,0,0.2,0,0.2,0.1s0.1,0,0.2,0c0.6,0,1.1-0.1,1.4-0.3c0.3-0.2,0.5-0.5,0.6-0.8
		l0.3-0.8l-4.4-12.8h4.2L1014.7,209.5z"/>
	<path d="M1021.4,208.6c0-1.9,0.5-3.5,1.6-4.7s2.6-1.8,4.5-1.8c1.9,0,3.4,0.6,4.5,1.8s1.6,2.8,1.6,4.7v0.2c0,1.9-0.5,3.5-1.6,4.7
		s-2.6,1.8-4.5,1.8c-1.9,0-3.5-0.6-4.5-1.8s-1.6-2.8-1.6-4.7V208.6z M1025.4,208.9c0,1.1,0.2,1.9,0.5,2.5s0.9,0.9,1.7,0.9
		c0.8,0,1.3-0.3,1.7-0.9s0.5-1.4,0.5-2.5v-0.2c0-1-0.2-1.9-0.5-2.5s-0.9-0.9-1.7-0.9c-0.8,0-1.3,0.3-1.7,0.9s-0.5,1.4-0.5,2.5V208.9
		z"/>
	<path d="M1043,213.6c-0.4,0.6-0.9,1-1.5,1.3s-1.3,0.5-2,0.5c-1.3,0-2.3-0.4-3.1-1.3s-1.1-2.2-1.1-3.9v-7.7h3.9v7.8
		c0,0.7,0.1,1.2,0.4,1.6s0.7,0.5,1.2,0.5c0.4,0,0.8-0.1,1.1-0.2s0.6-0.3,0.8-0.5v-9.2h4v12.7h-3.5L1043,213.6z"/>
	<path d="M1056.1,205.9l-1.4,0c-0.5,0-0.8,0.1-1.1,0.2s-0.5,0.4-0.6,0.7v8.3h-4v-12.7h3.7l0.1,1.9c0.3-0.7,0.6-1.2,1.1-1.5
		s0.9-0.6,1.5-0.6c0.2,0,0.4,0,0.6,0s0.4,0.1,0.5,0.1L1056.1,205.9z"/>
	<path d="M1068.5,199.3v3.2h2.1v2.7h-2.1v5.8c0,0.5,0.1,0.8,0.3,1s0.4,0.3,0.7,0.3c0.3,0,0.4,0,0.6,0s0.3,0,0.6-0.1l0.3,2.9
		c-0.4,0.1-0.8,0.2-1.2,0.2s-0.8,0.1-1.2,0.1c-1.3,0-2.3-0.3-3-1s-1-1.8-1-3.3v-5.8h-1.8v-2.7h1.8v-3.2H1068.5z"/>
	<path d="M1079.6,205.9l-1.4,0c-0.5,0-0.8,0.1-1.1,0.2s-0.5,0.4-0.6,0.7v8.3h-4v-12.7h3.7l0.1,1.9c0.3-0.7,0.6-1.2,1.1-1.5
		s0.9-0.6,1.5-0.6c0.2,0,0.4,0,0.6,0s0.4,0.1,0.5,0.1L1079.6,205.9z"/>
	<path d="M1088.4,215.1c-0.1-0.2-0.2-0.4-0.3-0.7s-0.2-0.5-0.2-0.8c-0.4,0.5-0.8,0.9-1.4,1.2s-1.2,0.5-1.9,0.5c-1.2,0-2.2-0.3-2.9-1
		s-1.1-1.6-1.1-2.8c0-1.3,0.5-2.2,1.4-2.9s2.4-1,4.3-1h1.4v-0.9c0-0.5-0.1-1-0.4-1.2s-0.6-0.4-1.2-0.4c-0.5,0-0.8,0.1-1,0.3
		s-0.3,0.5-0.3,1l-3.8,0l0-0.1c-0.1-1.2,0.4-2.1,1.4-2.9s2.4-1.2,4-1.2c1.6,0,2.8,0.4,3.8,1.2s1.5,1.9,1.5,3.4v4.8
		c0,0.7,0.1,1.3,0.2,1.9s0.3,1.2,0.5,1.7L1088.4,215.1z M1085.8,212.5c0.4,0,0.8-0.1,1.1-0.2s0.6-0.4,0.8-0.6v-2h-1.4
		c-0.6,0-1.1,0.2-1.4,0.5s-0.4,0.7-0.4,1.2c0,0.4,0.1,0.7,0.4,0.9S1085.4,212.5,1085.8,212.5z"/>
	<path d="M1098,199.5h-4v-2.7h4V199.5z M1098,215.1h-4v-12.7h4V215.1z"/>
	<path d="M1104.1,202.4l0.2,1.8c0.4-0.6,0.9-1.1,1.5-1.5s1.3-0.5,2-0.5c1.2,0,2.2,0.4,2.9,1.2s1,2.1,1,3.8v7.9h-4v-7.9
		c0-0.7-0.2-1.2-0.5-1.5s-0.7-0.5-1.3-0.5c-0.4,0-0.7,0.1-1,0.2s-0.5,0.3-0.7,0.6v9.1h-3.9v-12.7H1104.1z"/>
	<path d="M1119.7,215.3c-1.9,0-3.4-0.6-4.5-1.8s-1.7-2.6-1.7-4.4v-0.4c0-1.9,0.5-3.5,1.5-4.7s2.5-1.8,4.3-1.8c1.7,0,3.1,0.5,4,1.5
		s1.5,2.4,1.5,4.2v2.1h-7.2l0,0.1c0.1,0.6,0.4,1.2,0.8,1.6s1,0.6,1.8,0.6c0.8,0,1.3-0.1,1.8-0.2s1-0.3,1.7-0.6l0.9,2.4
		c-0.6,0.4-1.3,0.7-2.2,1S1120.7,215.3,1119.7,215.3z M1119.4,205.2c-0.6,0-1,0.2-1.3,0.6s-0.5,0.9-0.5,1.6l0,0.1h3.4v-0.3
		c0-0.6-0.1-1.1-0.4-1.5S1120,205.2,1119.4,205.2z"/>
	<path d="M1133.8,205.9l-1.4,0c-0.5,0-0.8,0.1-1.1,0.2s-0.5,0.4-0.6,0.7v8.3h-4v-12.7h3.7l0.1,1.9c0.3-0.7,0.6-1.2,1.1-1.5
		s0.9-0.6,1.5-0.6c0.2,0,0.4,0,0.6,0s0.4,0.1,0.5,0.1L1133.8,205.9z"/>
</g>
<path fill="#E2E2E2" d="M527,124c-0.9-46,28.1-92,71-107c65.2-22.8,149.3,30.3,153,103c2.8,56.1-42.6,114.7-106,118
	C579.2,241.4,528.2,183.5,527,124z"/>
<path fill="#E2E2E2" d="M161,95c13.8-47.3,58.7-82.7,100-82c77.1,1.4,136.6,128.3,100,182c-32.4,47.5-147.6,49-189-12
	C146.8,145.9,159.3,100.9,161,95z"/>
<g>
	<path fill="none" stroke="#000000" stroke-width="4" stroke-miterlimit="10" d="M809.3,475c2.4,0,5.8-0.1,10-0.3"/>
	<path fill="none" stroke="#000000" stroke-width="4" stroke-miterlimit="10" stroke-dasharray="22.5652,22.5652" d="M841.7,472.3
		c32.9-5.2,79.5-20.1,102.4-62.2"/>
	<path fill="none" stroke="#000000" stroke-width="4" stroke-miterlimit="10" d="M948.9,399.9c1.2-3,2.4-6.2,3.4-9.4"/>
	<g>
		<ellipse transform="matrix(6.642327e-03 -1 1 6.642327e-03 329.1151 1281.3684)" cx="809.5" cy="475" rx="4.5" ry="4.5"/>
	</g>
	<g>
		<polygon points="959.1,401.1 956.9,402.1 951.9,391.4 941.6,397.1 940.4,395 953,388 		"/>
	</g>
</g>
<g>
	<g>
		<path d="M296.5,140.5c-0.6-0.6-1.4-1-2.3-1h-19.1l-0.3-0.6c-2.2-5.5-4.4-11.1-6.3-16.7c8.1-3.2,15.6-8.2,22.7-15.2
			c0.4-0.4,0.6-0.8,0.8-1.2c0.3-0.5,0.5-1.1,0.5-1.8c0-13.4-0.1-25.4-1.4-37.7c0-0.1,0-0.2-0.1-0.4c-0.1-1.4-1.1-2.5-2.5-2.9
			c-5.2-1.4-10.9-2-17.6-2c-5.9,0-12,0.5-17.8,1c-4.1,0.3-8.3,0.7-12.4,0.9c-1.8,0.1-3.2,1.4-3.3,3.2c-0.1,0.2-0.1,0.5-0.1,0.7
			c-0.2,11.5,0.3,22.9,0.8,34.7c0,0.3,0.1,0.5,0.1,0.8c0,0.8,0.3,1.5,0.8,2.1c6.2,7.6,14.5,12.7,22,17.2c-2.5,5.5-5.2,11.8-6.9,18.5
			c-3.1,0-6.2-0.1-9.2-0.2c-3.6-0.1-7.4-0.2-11.1-0.2c-1.5,0-2.8,1-3,2.5c-0.3,1.5,0.4,2.9,1.7,3.5c5.5,5,10.7,9.1,15.9,12.4
			c-1.8,6.2-3.9,12.6-6.1,18.9c-0.3,0.9-0.2,1.7,0.2,2.4c0.4,0.7,1.1,1.2,1.9,1.4c0.9,0.5,2,0.4,3-0.3c3.6-2.6,7.4-5.2,11.1-7.6
			c1.9-1.3,3.8-2.6,5.7-3.9c1.2,0.9,2.3,1.7,3.5,2.6c4.4,3.3,9,6.7,13.7,9.7c0.5,0.3,1.1,0.5,1.7,0.5c1.5,0,2.9-1.3,3.1-3
			c0.1-0.5,0.1-0.9,0-1.4c-1.4-5.6-3.2-12.2-6.1-18.6c3.6-2.4,6.8-5.3,10-8.1c2.1-1.9,4.3-3.8,6.6-5.6c0.8-0.6,1.2-1.4,1.1-2.3
			C297.8,141.9,297.3,141.1,296.5,140.5z M255.2,157.9c0.3-1.2,0-2.3-0.8-3.1c-0.3-0.5-0.7-0.9-1.2-1.2c-3.5-2.1-6.9-4.6-10.4-7.4
			c0.8,0,1.5,0,2.3,0.1c3.7,0.1,7.4,0.2,11.2,0.2c0.2,0,0.3,0,0.5,0c1.5,0.1,2.8-0.8,3.1-2.4c0.9-4.4,2.4-8.9,4.6-14.3
			c1.4,3.7,2.8,7.3,4.2,10.9l1.1,2.9c0.3,1.4,1.5,2.4,3,2.4h13.3c-0.1,0.1-0.2,0.1-0.2,0.2c-3.5,3.1-7.2,6.4-11.3,8.8
			c-0.6,0.3-1,0.8-1.3,1.4c-0.6,0.9-0.6,2.1-0.1,3.1c1.8,3.5,3.3,7.3,4.7,12.1c-2.3-1.7-4.6-3.4-6.9-5.1c-1.6-1.2-3.2-2.4-4.8-3.5
			c-0.2-0.1-0.4-0.2-0.6-0.3c-1-0.6-2.2-0.6-3.2,0.1c-2.5,1.7-5,3.4-7.5,5.1c-1.3,0.9-2.5,1.7-3.8,2.6
			C252.8,166.1,254.1,161.9,255.2,157.9z M265.4,116c-6.8-4.1-14.4-8.7-20.1-15.3c-0.5-10-0.9-20.6-0.8-31c3-0.2,6-0.5,9-0.7
			c5.7-0.5,11.6-1,17.4-1c5.2,0,9.7,0.4,13.8,1.3c1,11.2,1.1,22.3,1.1,33.5C279.2,109,272.5,113.3,265.4,116z"/>
	</g>
</g>
<g>
	<g>
		<path d="M634.8,73.1c-15.7,0-28.5,12.8-28.5,28.5s12.8,28.5,28.5,28.5c15.7,0,28.5-12.8,28.5-28.5S650.6,73.1,634.8,73.1z
			 M634.8,122c-11.2,0-20.3-9.1-20.3-20.3c0-11.2,9.1-20.3,20.3-20.3s20.3,9.1,20.3,20.3C655.2,112.9,646,122,634.8,122z"/>
		<path d="M666.7,131.7c7.4-7.9,12-18.4,12-30.1c0-7.3-3-15.3-4.3-18.4c-6.4-15.4-21-24.6-39.1-24.6c-6.6,0-13.5,1.3-19.8,3.6
			c-17.3,6.4-24.6,25.5-24.2,41.6c0.6,22.6,20.6,41.6,43.6,41.6c5.5,0,10.7-1,15.6-2.9c4.2,9,8.7,17.9,13.4,26.7
			c2.3,4.3,4,9.5,6.9,13.5c4.6,6.5,19.3-2.9,23.4-6.3c0,0,0,0,0.1-0.1c1.8-0.6,3.2-2.5,1.8-4.5C686.4,158.3,675.7,145.6,666.7,131.7
			z M599.4,103.7c-0.4-13.2,5.3-28.7,18.8-33.7c5.5-2,11.3-3.1,17-3.1c14.9,0,26.4,7.1,31.5,19.5c2.3,5.6,3.7,11.3,3.7,15.3
			c0,19.6-16,35.6-35.6,35.6C616.1,137.3,599.9,121.9,599.4,103.7z M656.3,139.9c1.9-1.1,3.8-2.3,5.5-3.7
			c3.8,5.7,7.8,11.2,11.9,16.7c-2.8,1.7-5.5,3.6-8.2,5.7C662.4,152.4,659.3,146.1,656.3,139.9z M675.5,178.2
			c-2.3-4.6-4.6-9.1-6.9-13.6c2.9-2.3,5.9-4.4,9.1-6.3c3.6,4.8,7.2,9.6,10.7,14.5C684.6,175.5,680.2,177.4,675.5,178.2z"/>
	</g>
</g>
<g>
	<path d="M487.1,192.4h-6.8v6.9h-4v-17.1h12v3h-8v4.1h6.8V192.4z"/>
	<path d="M494,183.7h-4V181h4V183.7z M494,199.3h-4v-12.7h4V199.3z"/>
	<path d="M500.1,186.6l0.2,1.8c0.4-0.6,0.9-1.1,1.5-1.5s1.3-0.5,2-0.5c1.2,0,2.2,0.4,2.9,1.2s1,2.1,1,3.8v7.9h-4v-7.9
		c0-0.7-0.2-1.2-0.5-1.5s-0.7-0.5-1.3-0.5c-0.4,0-0.7,0.1-1,0.2s-0.5,0.3-0.7,0.6v9.1h-3.9v-12.7H500.1z"/>
	<path d="M517.2,199.3c-0.1-0.2-0.2-0.4-0.3-0.7s-0.2-0.5-0.2-0.8c-0.4,0.5-0.8,0.9-1.4,1.2s-1.2,0.5-1.9,0.5c-1.2,0-2.2-0.3-2.9-1
		s-1.1-1.6-1.1-2.8c0-1.3,0.5-2.2,1.4-2.9s2.4-1,4.3-1h1.4v-0.9c0-0.5-0.1-1-0.4-1.2s-0.6-0.4-1.2-0.4c-0.5,0-0.8,0.1-1,0.3
		s-0.3,0.5-0.3,1l-3.8,0l0-0.1c-0.1-1.2,0.4-2.1,1.4-2.9s2.4-1.2,4-1.2c1.6,0,2.8,0.4,3.8,1.2s1.5,1.9,1.5,3.4v4.8
		c0,0.7,0.1,1.3,0.2,1.9s0.3,1.2,0.5,1.7L517.2,199.3z M514.6,196.7c0.4,0,0.8-0.1,1.1-0.2s0.6-0.4,0.8-0.6v-2h-1.4
		c-0.6,0-1.1,0.2-1.4,0.5s-0.4,0.7-0.4,1.2c0,0.4,0.1,0.7,0.4,0.9S514.2,196.7,514.6,196.7z"/>
	<path d="M526.8,199.3h-4V181h4V199.3z"/>
	<path d="M540.6,196.5c0.5,0,0.9-0.1,1.2-0.4s0.4-0.7,0.4-1.3h3.6l0,0.1c0,1.4-0.4,2.5-1.4,3.4s-2.2,1.3-3.8,1.3
		c-1.9,0-3.4-0.6-4.4-1.8s-1.6-2.7-1.6-4.7v-0.3c0-1.9,0.5-3.4,1.6-4.6s2.5-1.8,4.4-1.8c1.6,0,2.9,0.4,3.9,1.3s1.4,2.1,1.4,3.7
		l0,0.1h-3.6c0-0.6-0.1-1.1-0.4-1.5s-0.7-0.6-1.2-0.6c-0.8,0-1.3,0.3-1.6,0.9s-0.5,1.4-0.5,2.5v0.3c0,1.1,0.2,1.9,0.5,2.5
		S539.9,196.5,540.6,196.5z"/>
	<path d="M551.3,188.2c0.4-0.6,0.8-1,1.4-1.3s1.2-0.5,1.8-0.5c1.3,0,2.3,0.5,3.1,1.4s1.1,2.3,1.1,4.3v7.3h-4V192c0-1-0.1-1.6-0.4-2
		s-0.7-0.6-1.3-0.6c-0.4,0-0.7,0.1-1,0.2s-0.5,0.3-0.7,0.5v9.2h-4V181h4V188.2z"/>
	<path d="M566.8,199.5c-1.9,0-3.4-0.6-4.5-1.8s-1.7-2.6-1.7-4.4v-0.4c0-1.9,0.5-3.5,1.5-4.7s2.5-1.8,4.3-1.8c1.7,0,3.1,0.5,4,1.5
		s1.5,2.4,1.5,4.2v2.1h-7.2l0,0.1c0.1,0.6,0.4,1.2,0.8,1.6s1,0.6,1.8,0.6c0.8,0,1.3-0.1,1.8-0.2s1-0.3,1.7-0.6l0.9,2.4
		c-0.6,0.4-1.3,0.7-2.2,1S567.8,199.5,566.8,199.5z M566.5,189.4c-0.6,0-1,0.2-1.3,0.6s-0.5,0.9-0.5,1.6l0,0.1h3.4v-0.3
		c0-0.6-0.1-1.1-0.4-1.5S567,189.4,566.5,189.4z"/>
	<path d="M579.1,196.5c0.5,0,0.9-0.1,1.2-0.4s0.4-0.7,0.4-1.3h3.6l0,0.1c0,1.4-0.4,2.5-1.4,3.4s-2.2,1.3-3.8,1.3
		c-1.9,0-3.4-0.6-4.4-1.8s-1.6-2.7-1.6-4.7v-0.3c0-1.9,0.5-3.4,1.6-4.6s2.5-1.8,4.4-1.8c1.6,0,2.9,0.4,3.9,1.3s1.4,2.1,1.4,3.7
		l0,0.1h-3.6c0-0.6-0.1-1.1-0.4-1.5s-0.7-0.6-1.2-0.6c-0.8,0-1.3,0.3-1.6,0.9s-0.5,1.4-0.5,2.5v0.3c0,1.1,0.2,1.9,0.5,2.5
		S578.3,196.5,579.1,196.5z"/>
	<path d="M590.5,194.2h-0.7v5h-4V181h4v10.3h0.5l2.7-4.7h4.5l-3.9,5.7l4.6,6.9h-4.5L590.5,194.2z"/>
	<path d="M615.9,194L615.9,194l1.4-7.3h3.7l-3,12.7h-3.4l-2.1-6.7h-0.1l-2.1,6.7h-3.3l-3-12.7h3.7l1.4,7.4h0.1l2.1-7.4h2.5
		L615.9,194z"/>
	<path d="M626.6,183.7h-4V181h4V183.7z M626.6,199.3h-4v-12.7h4V199.3z"/>
	<path d="M633.7,183.5v3.2h2.1v2.7h-2.1v5.8c0,0.5,0.1,0.8,0.3,1s0.4,0.3,0.7,0.3c0.3,0,0.4,0,0.6,0s0.3,0,0.6-0.1l0.3,2.9
		c-0.4,0.1-0.8,0.2-1.2,0.2s-0.8,0.1-1.2,0.1c-1.3,0-2.3-0.3-3-1s-1-1.8-1-3.3v-5.8h-1.8v-2.7h1.8v-3.2H633.7z"/>
	<path d="M641.5,188.2c0.4-0.6,0.8-1,1.4-1.3s1.2-0.5,1.8-0.5c1.3,0,2.3,0.5,3.1,1.4s1.1,2.3,1.1,4.3v7.3h-4V192c0-1-0.1-1.6-0.4-2
		s-0.7-0.6-1.3-0.6c-0.4,0-0.7,0.1-1,0.2s-0.5,0.3-0.7,0.5v9.2h-4V181h4V188.2z"/>
	<path d="M490.4,228.1c-0.1-0.2-0.2-0.4-0.3-0.7s-0.2-0.5-0.2-0.8c-0.4,0.5-0.8,0.9-1.4,1.2s-1.2,0.5-1.9,0.5c-1.2,0-2.2-0.3-2.9-1
		s-1.1-1.6-1.1-2.8c0-1.3,0.5-2.2,1.4-2.9s2.4-1,4.3-1h1.4v-0.9c0-0.5-0.1-1-0.4-1.2s-0.6-0.4-1.2-0.4c-0.5,0-0.8,0.1-1,0.3
		s-0.3,0.5-0.3,1l-3.8,0l0-0.1c-0.1-1.2,0.4-2.1,1.4-2.9s2.4-1.2,4-1.2c1.6,0,2.8,0.4,3.8,1.2s1.5,1.9,1.5,3.4v4.8
		c0,0.7,0.1,1.3,0.2,1.9s0.3,1.2,0.5,1.7L490.4,228.1z M487.7,225.5c0.4,0,0.8-0.1,1.1-0.2s0.6-0.4,0.8-0.6v-2h-1.4
		c-0.6,0-1.1,0.2-1.4,0.5s-0.4,0.7-0.4,1.2c0,0.4,0.1,0.7,0.4,0.9S487.4,225.5,487.7,225.5z"/>
	<path d="M499.4,215.4l0.2,1.8c0.4-0.6,0.9-1.1,1.5-1.5s1.3-0.5,2-0.5c1.2,0,2.2,0.4,2.9,1.2s1,2.1,1,3.8v7.9h-4v-7.9
		c0-0.7-0.2-1.2-0.5-1.5s-0.7-0.5-1.3-0.5c-0.4,0-0.7,0.1-1,0.2s-0.5,0.3-0.7,0.6v9.1h-3.9v-12.7H499.4z"/>
	<path d="M508.8,221.6c0-1.9,0.5-3.5,1.6-4.7s2.6-1.8,4.5-1.8c1.9,0,3.4,0.6,4.5,1.8s1.6,2.8,1.6,4.7v0.2c0,1.9-0.5,3.5-1.6,4.7
		s-2.6,1.8-4.5,1.8c-1.9,0-3.5-0.6-4.5-1.8s-1.6-2.8-1.6-4.7V221.6z M512.7,221.9c0,1.1,0.2,1.9,0.5,2.5s0.9,0.9,1.7,0.9
		c0.8,0,1.3-0.3,1.7-0.9s0.5-1.4,0.5-2.5v-0.2c0-1-0.2-1.9-0.5-2.5s-0.9-0.9-1.7-0.9c-0.8,0-1.3,0.3-1.7,0.9s-0.5,1.4-0.5,2.5V221.9
		z"/>
	<path d="M527.5,212.3v3.2h2.1v2.7h-2.1v5.8c0,0.5,0.1,0.8,0.3,1s0.4,0.3,0.7,0.3c0.3,0,0.4,0,0.6,0s0.3,0,0.6-0.1l0.3,2.9
		c-0.4,0.1-0.8,0.2-1.2,0.2s-0.8,0.1-1.2,0.1c-1.3,0-2.3-0.3-3-1s-1-1.8-1-3.3v-5.8h-1.8v-2.7h1.8v-3.2H527.5z"/>
	<path d="M535.3,217c0.4-0.6,0.8-1,1.4-1.3s1.2-0.5,1.8-0.5c1.3,0,2.3,0.5,3.1,1.4s1.1,2.3,1.1,4.3v7.3h-4v-7.3c0-1-0.1-1.6-0.4-2
		s-0.7-0.6-1.3-0.6c-0.4,0-0.7,0.1-1,0.2s-0.5,0.3-0.7,0.5v9.2h-4v-18.3h4V217z"/>
	<path d="M550.7,228.3c-1.9,0-3.4-0.6-4.5-1.8s-1.7-2.6-1.7-4.4v-0.4c0-1.9,0.5-3.5,1.5-4.7s2.5-1.8,4.3-1.8c1.7,0,3.1,0.5,4,1.5
		s1.5,2.4,1.5,4.2v2.1h-7.2l0,0.1c0.1,0.6,0.4,1.2,0.8,1.6s1,0.6,1.8,0.6c0.8,0,1.3-0.1,1.8-0.2s1-0.3,1.7-0.6l0.9,2.4
		c-0.6,0.4-1.3,0.7-2.2,1S551.8,228.3,550.7,228.3z M550.5,218.2c-0.6,0-1,0.2-1.3,0.6s-0.5,0.9-0.5,1.6l0,0.1h3.4v-0.3
		c0-0.6-0.1-1.1-0.4-1.5S551,218.2,550.5,218.2z"/>
	<path d="M564.8,218.9l-1.4,0c-0.5,0-0.8,0.1-1.1,0.2s-0.5,0.4-0.6,0.7v8.3h-4v-12.7h3.7l0.1,1.9c0.3-0.7,0.6-1.2,1.1-1.5
		s0.9-0.6,1.5-0.6c0.2,0,0.4,0,0.6,0s0.4,0.1,0.5,0.1L564.8,218.9z"/>
	<path d="M577.2,212.3v3.2h2.1v2.7h-2.1v5.8c0,0.5,0.1,0.8,0.3,1s0.4,0.3,0.7,0.3c0.3,0,0.4,0,0.6,0s0.3,0,0.6-0.1l0.3,2.9
		c-0.4,0.1-0.8,0.2-1.2,0.2s-0.8,0.1-1.2,0.1c-1.3,0-2.3-0.3-3-1s-1-1.8-1-3.3v-5.8h-1.8v-2.7h1.8v-3.2H577.2z"/>
	<path d="M588.4,218.9l-1.4,0c-0.5,0-0.8,0.1-1.1,0.2s-0.5,0.4-0.6,0.7v8.3h-4v-12.7h3.7l0.1,1.9c0.3-0.7,0.6-1.2,1.1-1.5
		s0.9-0.6,1.5-0.6c0.2,0,0.4,0,0.6,0s0.4,0.1,0.5,0.1L588.4,218.9z"/>
	<path d="M597.1,228.1c-0.1-0.2-0.2-0.4-0.3-0.7s-0.2-0.5-0.2-0.8c-0.4,0.5-0.8,0.9-1.4,1.2s-1.2,0.5-1.9,0.5c-1.2,0-2.2-0.3-2.9-1
		s-1.1-1.6-1.1-2.8c0-1.3,0.5-2.2,1.4-2.9s2.4-1,4.3-1h1.4v-0.9c0-0.5-0.1-1-0.4-1.2s-0.6-0.4-1.2-0.4c-0.5,0-0.8,0.1-1,0.3
		s-0.3,0.5-0.3,1l-3.8,0l0-0.1c-0.1-1.2,0.4-2.1,1.4-2.9s2.4-1.2,4-1.2c1.6,0,2.8,0.4,3.8,1.2s1.5,1.9,1.5,3.4v4.8
		c0,0.7,0.1,1.3,0.2,1.9s0.3,1.2,0.5,1.7L597.1,228.1z M594.5,225.5c0.4,0,0.8-0.1,1.1-0.2s0.6-0.4,0.8-0.6v-2H595
		c-0.6,0-1.1,0.2-1.4,0.5s-0.4,0.7-0.4,1.2c0,0.4,0.1,0.7,0.4,0.9S594.1,225.5,594.5,225.5z"/>
	<path d="M606.7,212.5h-4v-2.7h4V212.5z M606.7,228.1h-4v-12.7h4V228.1z"/>
	<path d="M612.8,215.4l0.2,1.8c0.4-0.6,0.9-1.1,1.5-1.5s1.3-0.5,2-0.5c1.2,0,2.2,0.4,2.9,1.2s1,2.1,1,3.8v7.9h-4v-7.9
		c0-0.7-0.2-1.2-0.5-1.5s-0.7-0.5-1.3-0.5c-0.4,0-0.7,0.1-1,0.2s-0.5,0.3-0.7,0.6v9.1h-3.9v-12.7H612.8z"/>
	<path d="M628.4,228.3c-1.9,0-3.4-0.6-4.5-1.8s-1.7-2.6-1.7-4.4v-0.4c0-1.9,0.5-3.5,1.5-4.7s2.5-1.8,4.3-1.8c1.7,0,3.1,0.5,4,1.5
		s1.5,2.4,1.5,4.2v2.1h-7.2l0,0.1c0.1,0.6,0.4,1.2,0.8,1.6s1,0.6,1.8,0.6c0.8,0,1.3-0.1,1.8-0.2s1-0.3,1.7-0.6l0.9,2.4
		c-0.6,0.4-1.3,0.7-2.2,1S629.4,228.3,628.4,228.3z M628.1,218.2c-0.6,0-1,0.2-1.3,0.6s-0.5,0.9-0.5,1.6l0,0.1h3.4v-0.3
		c0-0.6-0.1-1.1-0.4-1.5S628.7,218.2,628.1,218.2z"/>
	<path d="M642.5,218.9l-1.4,0c-0.5,0-0.8,0.1-1.1,0.2s-0.5,0.4-0.6,0.7v8.3h-4v-12.7h3.7l0.1,1.9c0.3-0.7,0.6-1.2,1.1-1.5
		s0.9-0.6,1.5-0.6c0.2,0,0.4,0,0.6,0s0.4,0.1,0.5,0.1L642.5,218.9z"/>
</g>
<g>
	<path fill="none" stroke="#000000" stroke-width="4" stroke-miterlimit="10" d="M919.3,177.7c-1.6-1.8-3.9-4.3-6.8-7.3"/>
	<path fill="none" stroke="#000000" stroke-width="4" stroke-miterlimit="10" stroke-dasharray="21.3948,21.3948" d="M896.8,155.8
		c-22.3-18.8-58.5-42.3-105.5-48.3"/>
	<path fill="none" stroke="#000000" stroke-width="4" stroke-miterlimit="10" d="M780.6,106.4c-3.3-0.2-6.6-0.4-10-0.4"/>
	<g>
		<ellipse transform="matrix(0.7646 -0.6445 0.6445 0.7646 101.9087 634.1306)" cx="919.1" cy="177.6" rx="4.5" ry="4.5"/>
	</g>
	<g>
		<polygon points="778.8,96.4 780.4,98.2 771.5,106.1 780,114.3 778.3,116.1 768,106 		"/>
	</g>
</g>
<g>
	<path fill="none" stroke="#000000" stroke-width="4" stroke-miterlimit="10" d="M708.7,232.3c1.6,1.8,3.9,4.3,6.8,7.3"/>
	<path fill="none" stroke="#000000" stroke-width="4" stroke-miterlimit="10" stroke-dasharray="21.3948,21.3948" d="M731.2,254.2
		c22.3,18.8,58.5,42.3,105.5,48.3"/>
	<path fill="none" stroke="#000000" stroke-width="4" stroke-miterlimit="10" d="M847.4,303.6c3.3,0.2,6.6,0.4,10,0.4"/>
	<g>
		<ellipse transform="matrix(0.7646 -0.6445 0.6445 0.7646 17.0542 511.5945)" cx="708.9" cy="232.4" rx="4.5" ry="4.5"/>
	</g>
	<g>
		<polygon points="849.2,313.6 847.6,311.8 856.5,303.9 848,295.7 849.7,293.9 860,304 		"/>
	</g>
</g>
<g>
	<path d="M162.6,209.3L162.6,209.3c-0.1,2.1-0.6,3.6-1.8,4.7s-2.7,1.6-4.8,1.6c-2.1,0-3.8-0.6-5.1-1.9s-2-3-2-5.1V205
		c0-2.1,0.6-3.7,1.9-5s2.9-2,5-2c2.2,0,3.8,0.5,4.9,1.6s1.8,2.6,1.9,4.6l0,0.1h-3.9c-0.1-1.1-0.3-1.9-0.7-2.5s-1.2-0.8-2.3-0.8
		c-0.9,0-1.6,0.4-2.1,1.1s-0.8,1.7-0.8,2.8v3.6c0,1.2,0.3,2.1,0.8,2.9s1.3,1.1,2.3,1.1c1,0,1.6-0.3,2-0.8s0.6-1.3,0.7-2.4H162.6z"/>
	<path d="M170.3,215.5c-1.9,0-3.4-0.6-4.5-1.8s-1.7-2.6-1.7-4.4v-0.4c0-1.9,0.5-3.5,1.5-4.7s2.5-1.8,4.3-1.8c1.7,0,3.1,0.5,4,1.5
		s1.5,2.4,1.5,4.2v2.1h-7.2l0,0.1c0.1,0.6,0.4,1.2,0.8,1.6s1,0.6,1.8,0.6c0.8,0,1.3-0.1,1.8-0.2s1-0.3,1.7-0.6l0.9,2.4
		c-0.6,0.4-1.3,0.7-2.2,1S171.3,215.5,170.3,215.5z M170,205.4c-0.6,0-1,0.2-1.3,0.6s-0.5,0.9-0.5,1.6l0,0.1h3.4v-0.3
		c0-0.6-0.1-1.1-0.4-1.5S170.6,205.4,170,205.4z"/>
	<path d="M184.4,206.1l-1.4,0c-0.5,0-0.8,0.1-1.1,0.2s-0.5,0.4-0.6,0.7v8.3h-4v-12.7h3.7l0.1,1.9c0.3-0.7,0.6-1.2,1.1-1.5
		s0.9-0.6,1.5-0.6c0.2,0,0.4,0,0.6,0s0.4,0.1,0.5,0.1L184.4,206.1z"/>
	<path d="M191.1,199.5v3.2h2.1v2.7h-2.1v5.8c0,0.5,0.1,0.8,0.3,1s0.4,0.3,0.7,0.3c0.3,0,0.4,0,0.6,0s0.3,0,0.6-0.1l0.3,2.9
		c-0.4,0.1-0.8,0.2-1.2,0.2s-0.8,0.1-1.2,0.1c-1.3,0-2.3-0.3-3-1s-1-1.8-1-3.3v-5.8h-1.8v-2.7h1.8v-3.2H191.1z"/>
	<path d="M199.2,199.7h-4V197h4V199.7z M199.2,215.3h-4v-12.7h4V215.3z"/>
	<path d="M202.6,215.3v-9.9h-1.8v-2.7h1.8V202c0-1.7,0.5-3,1.6-3.9s2.5-1.4,4.4-1.4c0.7,0,1.3,0.1,2,0.2s1.4,0.3,2.2,0.5l-0.5,3.1
		c-0.7-0.2-1.2-0.3-1.7-0.4s-1-0.1-1.7-0.1c-0.7,0-1.3,0.2-1.7,0.5s-0.6,0.8-0.6,1.4v0.6h2.5v2.7h-2.5v9.9H202.6z M214.5,215.3h-4
		v-12.7h4V215.3z"/>
	<path d="M222.3,212.5c0.5,0,0.9-0.1,1.2-0.4s0.4-0.7,0.4-1.3h3.6l0,0.1c0,1.4-0.4,2.5-1.4,3.4s-2.2,1.3-3.8,1.3
		c-1.9,0-3.4-0.6-4.4-1.8s-1.6-2.7-1.6-4.7v-0.3c0-1.9,0.5-3.4,1.6-4.6s2.5-1.8,4.4-1.8c1.6,0,2.9,0.4,3.9,1.3s1.4,2.1,1.4,3.7
		l0,0.1h-3.6c0-0.6-0.1-1.1-0.4-1.5s-0.7-0.6-1.2-0.6c-0.8,0-1.3,0.3-1.6,0.9s-0.5,1.4-0.5,2.5v0.3c0,1.1,0.2,1.9,0.5,2.5
		S221.5,212.5,222.3,212.5z"/>
	<path d="M236.5,215.3c-0.1-0.2-0.2-0.4-0.3-0.7s-0.2-0.5-0.2-0.8c-0.4,0.5-0.8,0.9-1.4,1.2s-1.2,0.5-1.9,0.5c-1.2,0-2.2-0.3-2.9-1
		s-1.1-1.6-1.1-2.8c0-1.3,0.5-2.2,1.4-2.9s2.4-1,4.3-1h1.4v-0.9c0-0.5-0.1-1-0.4-1.2s-0.6-0.4-1.2-0.4c-0.5,0-0.8,0.1-1,0.3
		s-0.3,0.5-0.3,1l-3.8,0l0-0.1c-0.1-1.2,0.4-2.1,1.4-2.9s2.4-1.2,4-1.2c1.6,0,2.8,0.4,3.8,1.2s1.5,1.9,1.5,3.4v4.8
		c0,0.7,0.1,1.3,0.2,1.9s0.3,1.2,0.5,1.7L236.5,215.3z M233.8,212.7c0.4,0,0.8-0.1,1.1-0.2s0.6-0.4,0.8-0.6v-2h-1.4
		c-0.6,0-1.1,0.2-1.4,0.5s-0.4,0.7-0.4,1.2c0,0.4,0.1,0.7,0.4,0.9S233.4,212.7,233.8,212.7z"/>
	<path d="M246.6,199.5v3.2h2.1v2.7h-2.1v5.8c0,0.5,0.1,0.8,0.3,1s0.4,0.3,0.7,0.3c0.3,0,0.4,0,0.6,0s0.3,0,0.6-0.1l0.3,2.9
		c-0.4,0.1-0.8,0.2-1.2,0.2s-0.8,0.1-1.2,0.1c-1.3,0-2.3-0.3-3-1s-1-1.8-1-3.3v-5.8h-1.8v-2.7h1.8v-3.2H246.6z"/>
	<path d="M254.7,199.7h-4V197h4V199.7z M254.7,215.3h-4v-12.7h4V215.3z"/>
	<path d="M256.6,208.8c0-1.9,0.5-3.5,1.6-4.7s2.6-1.8,4.5-1.8c1.9,0,3.4,0.6,4.5,1.8s1.6,2.8,1.6,4.7v0.2c0,1.9-0.5,3.5-1.6,4.7
		s-2.6,1.8-4.5,1.8c-1.9,0-3.5-0.6-4.5-1.8s-1.6-2.8-1.6-4.7V208.8z M260.6,209.1c0,1.1,0.2,1.9,0.5,2.5s0.9,0.9,1.7,0.9
		c0.8,0,1.3-0.3,1.7-0.9s0.5-1.4,0.5-2.5v-0.2c0-1-0.2-1.9-0.5-2.5s-0.9-0.9-1.7-0.9c-0.8,0-1.3,0.3-1.7,0.9s-0.5,1.4-0.5,2.5V209.1
		z"/>
	<path d="M274.3,202.6l0.2,1.8c0.4-0.6,0.9-1.1,1.5-1.5s1.3-0.5,2-0.5c1.2,0,2.2,0.4,2.9,1.2s1,2.1,1,3.8v7.9h-4v-7.9
		c0-0.7-0.2-1.2-0.5-1.5s-0.7-0.5-1.3-0.5c-0.4,0-0.7,0.1-1,0.2s-0.5,0.3-0.7,0.6v9.1h-3.9v-12.7H274.3z"/>
</g>
<g>
	<path fill="none" stroke="#000000" stroke-width="4" stroke-miterlimit="10" d="M509.2,95.1c-2.1,1.1-5.1,2.5-9.1,4"/>
	<path fill="none" stroke="#000000" stroke-width="4" stroke-miterlimit="10" stroke-dasharray="21.891,21.891" d="M479.3,105.8
		c-17.5,4.7-42.3,9.2-75.7,10.7"/>
	<path fill="none" stroke="#000000" stroke-width="4" stroke-miterlimit="10" d="M392.6,116.9c-3.3,0.1-6.6,0.1-10,0.1"/>
	<g>
		<ellipse transform="matrix(0.8841 -0.4672 0.4672 0.8841 14.5373 248.8397)" cx="509" cy="95.1" rx="4.5" ry="4.5"/>
	</g>
	<g>
		<polygon points="390.4,107 392.1,108.8 383.5,116.9 392.3,124.9 390.7,126.6 380,117 		"/>
	</g>
</g>
<g>
	<path fill="none" stroke="#000000" stroke-width="4" stroke-miterlimit="10" d="M27,417.6c2.3,0.9,5.5,2,9.4,3.4"/>
	<path fill="none" stroke="#000000" stroke-width="4" stroke-miterlimit="10" stroke-dasharray="19.016,19.016" d="M54.6,426.5
		c35.2,9.6,93.3,18.9,139.2-6"/>
	<path fill="none" stroke="#000000" stroke-width="4" stroke-miterlimit="10" d="M201.9,415.5c2.8-1.8,5.5-3.8,8.1-5.9"/>
	<g>
		<ellipse transform="matrix(0.3609 -0.9326 0.9326 0.3609 -372.0971 292.2919)" cx="27.2" cy="417.6" rx="4.5" ry="4.5"/>
	</g>
	<g>
		<polygon points="209.6,422.2 207.3,421.8 209.2,410.2 197.4,409.1 197.6,406.7 212,408 		"/>
	</g>
</g>
</svg>
